<svg width="18" height="18" viewBox="0 0 18 18" fill="none" xmlns="http://www.w3.org/2000/svg">
<path fill-rule="evenodd" clip-rule="evenodd" d="M5.40136 12.1463C5.28347 12.267 5.14282 12.3631 4.98755 12.429C4.83227 12.4949 4.66546 12.5293 4.49678 12.5303C4.3281 12.5313 4.1609 12.4988 4.00487 12.4347C3.84883 12.3706 3.70707 12.2762 3.58779 12.1569C3.46852 12.0376 3.37409 11.8959 3.30999 11.7398C3.24589 11.5838 3.21339 11.4166 3.21438 11.2479C3.21536 11.0792 3.2498 10.9124 3.31572 10.7572C3.38163 10.6019 3.4777 10.4612 3.59836 10.3433L8.09836 5.84335C8.33746 5.60428 8.66173 5.46997 8.99986 5.46997C9.33798 5.46997 9.66225 5.60428 9.90135 5.84335L14.4014 10.3433C14.522 10.4612 14.6181 10.6019 14.684 10.7572C14.7499 10.9124 14.7844 11.0792 14.7853 11.2479C14.7863 11.4166 14.7538 11.5838 14.6897 11.7398C14.6256 11.8959 14.5312 12.0376 14.4119 12.1569C14.2926 12.2762 14.1509 12.3706 13.9948 12.4347C13.8388 12.4988 13.6716 12.5313 13.5029 12.5303C13.3342 12.5293 13.1674 12.4949 13.0122 12.429C12.8569 12.3631 12.7162 12.267 12.5984 12.1463L8.99986 8.54785L5.40136 12.1463Z" fill="#E5E5E5"/>
</svg>
