<svg width="149" height="143" viewBox="0 0 149 143" fill="none" xmlns="http://www.w3.org/2000/svg">
<path fill-rule="evenodd" clip-rule="evenodd" d="M31.0418 23.8334C31.0418 13.9613 39.3806 5.95837 49.6668 5.95837H99.3329C109.619 5.95837 117.958 13.9612 117.958 23.8334H124.167C134.453 23.8334 142.792 31.8363 142.792 41.7084V45.557C142.792 52.8662 138.155 59.439 131.084 62.1538L111.943 69.5016C109.245 74.2647 105.281 79.0761 99.4788 82.7887C94.4351 86.0151 88.2355 88.262 80.7085 89.0575V101.292H93.1252C103.412 101.292 111.75 109.294 111.75 119.167V125.125C111.75 131.707 106.191 137.042 99.3335 137.042H49.6668C42.8093 137.042 37.2502 131.707 37.2502 125.125V119.167C37.2502 109.294 45.5889 101.292 55.8752 101.292H68.2918V89.0575C60.7647 88.2626 54.5646 86.0151 49.521 82.7881C43.7185 79.0761 39.7543 74.2647 37.0571 69.5016L17.9164 62.1538C10.8452 59.439 6.2085 52.8662 6.2085 45.557V41.7084C6.2085 31.8363 14.5472 23.8334 24.8335 23.8334H31.0418ZM31.0418 35.75H24.8335C21.4048 35.75 18.6252 38.4177 18.6252 41.7084V45.557C18.6252 47.9935 20.1707 50.1844 22.5278 51.0892L31.7811 54.6415C31.3643 52.3516 31.0457 50.0032 31.0418 47.6729V35.75ZM117.958 47.6667V35.75H124.167C127.596 35.75 130.375 38.4177 130.375 41.7084V45.557C130.375 47.9935 128.829 50.1844 126.473 51.0892L117.219 54.6416C117.629 52.3357 117.958 50.0075 117.958 47.6667ZM49.6668 17.875C46.2381 17.875 43.4585 20.5427 43.4585 23.8334V47.6492V47.6567C43.4585 47.6665 43.4585 47.6714 43.4585 47.6567C43.49 49.2016 43.6917 50.751 43.956 52.2732C44.4703 55.2345 45.4872 59.0919 47.4591 62.8771C49.419 66.6392 52.2613 70.2196 56.4085 72.8734C60.5169 75.5017 66.2735 77.4584 74.5002 77.4584C82.7262 77.4584 88.4826 75.5017 92.5912 72.8728C96.7384 70.2196 99.5806 66.6392 101.541 62.8771C103.513 59.0918 104.53 55.2344 105.044 52.2731C105.308 50.7492 105.498 49.2068 105.542 47.6613V23.8334C105.542 20.5427 102.762 17.875 99.3329 17.875H49.6668ZM55.8752 113.208C52.4464 113.208 49.6668 115.876 49.6668 119.167V125.125H99.3335V119.167C99.3335 115.876 96.554 113.208 93.1252 113.208H55.8752Z" fill="black"/>
</svg>
